<svg xmlns="http://www.w3.org/2000/svg" fill-rule="evenodd" viewBox="0 0 100 100">
    <path d="M50.807 26.222c-13.362 0-24.233 10.875-24.233 24.243 0 7.696 3.642 14.88 9.787 19.447v16.375a1.5 1.5 0 0 0 1.5 1.5h2.41c.732 5.167 5.171 9.157 10.536 9.157 5.367 0 9.809-3.99 10.542-9.157h2.124a1.5 1.5 0 0 0 1.5-1.5V70.122a24.24 24.24 0 0 0 10.074-19.657c0-13.368-10.874-24.243-24.24-24.243zm0 67.723c-3.707 0-6.806-2.651-7.504-6.157h15.015c-.7 3.505-3.801 6.157-7.511 6.157zm11.166-9.158H39.361V70.639h22.612v14.148zm-6.836-33.002v15.854H46.19V51.785h8.947zm8.152 15.854h-5.152V51.785h4.735a1.5 1.5 0 0 0 0-3H38.461a1.5 1.5 0 1 0 0 3h4.728v15.854h-4.856a21.212 21.212 0 0 1-8.76-17.174c0-11.713 9.525-21.243 21.233-21.243 11.711 0 21.24 9.529 21.24 21.243a21.237 21.237 0 0 1-8.757 17.174zM50.663 21.182a1.5 1.5 0 0 0 1.5-1.5V4.555a1.5 1.5 0 1 0-3 0v15.127a1.5 1.5 0 0 0 1.5 1.5zM17.628 48.785H2.501a1.5 1.5 0 1 0 0 3h15.127a1.5 1.5 0 1 0 0-3zm79.872 0H82.38a1.5 1.5 0 1 0 0 3H97.5a1.5 1.5 0 0 0 0-3zM26.787 28.851c.284.249.636.37.986.37a1.5 1.5 0 0 0 .986-2.63l-11.393-9.946a1.5 1.5 0 1 0-1.972 2.26l11.393 9.946zm44.194.37c.35 0 .701-.122.985-.37l11.399-9.946a1.501 1.501 0 0 0 .144-2.117 1.498 1.498 0 0 0-2.116-.144L69.994 26.59a1.501 1.501 0 0 0 .987 2.631z"/>
</svg>
