<?xml version="1.0" encoding="UTF-8" standalone="no"?>
<svg
   xmlns:dc="http://purl.org/dc/elements/1.1/"
   xmlns:cc="http://creativecommons.org/ns#"
   xmlns:rdf="http://www.w3.org/1999/02/22-rdf-syntax-ns#"
   xmlns:svg="http://www.w3.org/2000/svg"
   xmlns="http://www.w3.org/2000/svg"
   viewBox="0 0 533.33331 533.33331"
   height="533.33331"
   width="533.33331"
   xml:space="preserve"
   id="svg2"
   version="1.1"><metadata
     id="metadata8"><rdf:RDF><cc:Work
         rdf:about=""><dc:format>image/svg+xml</dc:format><dc:type
           rdf:resource="http://purl.org/dc/dcmitype/StillImage" /></cc:Work></rdf:RDF></metadata><defs
     id="defs6"><clipPath
       id="clipPath170"
       clipPathUnits="userSpaceOnUse"><path
         style="clip-rule:evenodd"
         id="path168"
         d="m 213.34912,266.3609 c 28.5,4.99991 53.5,-35.99997 -4,-80.50001 64.5,37.50004 36,93.49995 4,80.50001 z" /></clipPath><clipPath
       id="clipPath186"
       clipPathUnits="userSpaceOnUse"><path
         style="clip-rule:evenodd"
         id="path184"
         d="m 178.34912,229.86093 c -27.5,33.99994 11.5,72.49994 35,37.00003 -21.5,23.99988 -53.5,2.49988 -32,-33.00012 8.47888,-14 28.10001,-36.69983 26.5,-47.49985 -0.8,7.20001 -17.36755,28.49985 -29.5,43.49994 z" /></clipPath><clipPath
       id="clipPath210"
       clipPathUnits="userSpaceOnUse"><path
         style="clip-rule:evenodd"
         id="path208"
         d="m 229.27475,249.39618 c 0.0134,-3.31369 -2.66191,-6.01086 -5.9756,-6.02431 -3.31368,-0.0135 -6.01085,2.66191 -6.02431,5.97559 -0.0134,3.31369 2.66191,6.01086 5.9756,6.0243 3.31368,0.0135 6.01085,-2.66191 6.02431,-5.97558 z" /></clipPath><clipPath
       id="clipPath234"
       clipPathUnits="userSpaceOnUse"><path
         style="clip-rule:evenodd"
         id="path232"
         d="m 205.29674,261.73791 c -0.0348,-1.9327 -1.62973,-3.47125 -3.56243,-3.43646 -1.93267,0.0348 -3.47123,1.6297 -3.43644,3.56238 0.0348,1.93268 1.62973,3.47125 3.5624,3.43646 1.93268,-0.0348 3.47124,-1.6297 3.43647,-3.56238 z" /></clipPath><clipPath
       id="clipPath250"
       clipPathUnits="userSpaceOnUse"><path
         style="clip-rule:evenodd"
         id="path248"
         d="m 159.40541,248 c -3.60197,28.5 17.70842,35.13431 27.89294,36 C 154.5,274 161.62772,242.29611 175.90549,225.45284 197.9053,199.5 202.66141,191.19742 206.9769,182.19418 215.67691,185.1029 228.6488,195.80582 234,201 c -7.5,-12.5 -21,-21 -29.6124,-24 -21.98216,40.06766 -41.94896,47 -44.98219,71 z" /></clipPath></defs><g
     transform="matrix(1.3333333,0,0,-1.3333333,0,533.33333)"
     id="g10"><g
       id="g12"><path
         id="path14"
         style="fill:#ffffff;fill-opacity:1;fill-rule:nonzero;stroke:none"
         d="M 0,400 H 400 V 0 H 0 Z" /></g><g
       id="g16"><g
         transform="translate(283.37109,121.11072)"
         id="g18"><path
           id="path20"
           style="fill:#000000;fill-opacity:0.8;fill-rule:nonzero;stroke:none"
           d="M 0,7.179688 H 0.847452 V 3.237896 c 0,-0.167593 -0.003357,-0.351945 -0.010083,-0.553057 0,-0.194409 -0.003357,-0.388817 -0.010083,-0.583225 C 0.82056,1.907206 0.810469,1.732909 0.797017,1.578723 0.790291,1.431242 0.783557,1.317278 0.776831,1.236834 h 0.040372 l 3.964879,5.942854 h 1.00888 V -4e-6 H 4.943491 v 3.901569 c 0,0.181 0.00338,0.375409 0.010102,0.583224 0.00673,0.214519 0.01344,0.418983 0.020166,0.613391 0.013452,0.201112 0.023544,0.378761 0.030269,0.532946 0.00673,0.154186 0.01346,0.268149 0.020186,0.341891 H 4.983842 L 1.00888,-4e-6 H 0 Z" /></g></g><g
       id="g22"><g
         transform="translate(276.88818,121.11072)"
         id="g24"><path
           id="path26"
           style="fill:#000000;fill-opacity:0.8;fill-rule:nonzero;stroke:none"
           d="M 0,-4e-6 V 7.179688 H 0.90799 V 4.1429 h 1.351882 c 0.672585,0 1.207293,-0.090501 1.604117,-0.271502 C 4.260814,3.690398 4.546672,3.445712 4.721544,3.13734 4.896416,2.828969 4.983842,2.483727 4.983842,2.101614 4.983842,1.679279 4.886324,1.310575 4.691275,0.995499 4.502952,0.680424 4.217093,0.435739 3.83372,0.261442 3.450347,0.087145 2.962739,-4e-6 2.370865,-4e-6 Z m 2.280058,0.774281 c 0.585148,0 1.025696,0.107259 1.321633,0.321779 0.295937,0.221222 0.443893,0.556408 0.443893,1.005558 0,0.308372 -0.073978,0.553058 -0.221947,0.734058 C 3.682395,3.023376 3.470533,3.157451 3.188048,3.237896 2.912289,3.318341 2.565902,3.358563 2.148899,3.358563 H 0.90799 V 0.774277 Z" /></g></g><g
       id="g28"><g
         transform="translate(267.73535,121.11072)"
         id="g30"><path
           id="path32"
           style="fill:#000000;fill-opacity:0.8;fill-rule:nonzero;stroke:none"
           d="M 3.177955,-4e-6 0.8071,6.294796 H 0.766748 C 0.7802,6.160721 0.790281,5.989776 0.797007,5.78196 0.810459,5.574145 0.82055,5.346218 0.827276,5.09818 0.834002,4.856846 0.837369,4.608808 0.837369,4.354067 V -4e-6 H 0 V 7.179688 H 1.341799 L 3.561329,1.297167 H 3.601691 L 5.861573,7.179688 H 7.193289 V -4e-6 H 6.295382 V 4.4144 c 0,0.234631 0.00337,0.465909 0.010093,0.693836 0.00673,0.23463 0.016818,0.452502 0.030269,0.653613 0.013452,0.207816 0.023534,0.382112 0.03026,0.52289 H 6.325651 L 3.924527,-4e-6 Z" /></g></g><g
       id="g34"><g
         transform="translate(262.12939,121.11072)"
         id="g36"><path
           id="path38"
           style="fill:#000000;fill-opacity:0.8;fill-rule:nonzero;stroke:none"
           d="M 4.025417,-4e-6 H 0 V 7.179688 H 4.025417 V 6.385296 H 0.90799 V 4.1429 H 3.843813 V 3.358563 H 0.90799 V 0.794387 h 3.117427 z" /></g></g><g
       id="g40"><g
         transform="translate(255.3916,121.01001)"
         id="g42"><path
           id="path44"
           style="fill:#000000;fill-opacity:0.8;fill-rule:nonzero;stroke:none"
           d="m 3.450356,6.586468 c -0.383373,0 -0.72975,-0.067037 -1.039139,-0.201113 C 2.101828,6.257985 1.83952,6.066929 1.624293,5.812187 1.409066,5.564149 1.244285,5.25913 1.129946,4.897129 1.015607,4.541831 0.958435,4.139607 0.958435,3.690458 0.958435,3.10053 1.049228,2.587695 1.230826,2.151952 1.41915,1.71621 1.694916,1.381023 2.058112,1.146393 2.428033,0.911763 2.888754,0.794448 3.440273,0.794448 c 0.316114,0 0.615412,0.026815 0.897897,0.080445 0.282486,0.05363 0.558243,0.120667 0.827276,0.201112 V 0.291668 C 4.896413,0.191113 4.617289,0.117371 4.328077,0.070445 4.045592,0.023519 3.705939,5.6e-5 3.309114,5.6e-5 2.575997,5.6e-5 1.963944,0.15089 1.472958,0.452558 0.981972,0.754226 0.612054,1.183264 0.363198,1.739673 0.121068,2.296082 0,2.949696 0,3.700513 0,4.243515 0.073987,4.739591 0.221956,5.188741 0.37665,5.63789 0.598603,6.026707 0.887814,6.355189 c 0.295937,0.328482 0.65913,0.579872 1.089584,0.754169 0.430454,0.181001 0.924806,0.271501 1.483051,0.271501 0.369921,0 0.72639,-0.03687 1.069408,-0.110611 C 4.872875,7.196507 5.178897,7.092599 5.44793,6.958525 L 5.084733,6.1943 C 4.86278,6.294856 4.613929,6.385356 4.33817,6.4658 4.069137,6.546246 3.773196,6.586468 3.450356,6.586468 Z" /></g></g><g
       id="g46"><g
         transform="translate(244.99634,121.11072)"
         id="g48"><path
           id="path50"
           style="fill:#000000;fill-opacity:0.8;fill-rule:nonzero;stroke:none"
           d="M 4.903138,9.411987 C 4.876235,9.076801 4.792166,8.795244 4.650923,8.567318 4.516407,8.339391 4.314627,8.168446 4.045593,8.054482 3.77656,7.940519 3.426825,7.883537 2.996371,7.883537 c -0.43718,0 -0.790292,0.056982 -1.059325,0.170945 C 1.674738,8.168446 1.48305,8.336039 1.361985,8.557261 1.24092,8.785189 1.166942,9.070097 1.140039,9.411987 H 1.967315 C 2.000944,9.049986 2.095104,8.8053 2.249799,8.677929 2.411219,8.557262 2.666803,8.496928 3.016547,8.496928 c 0.309389,0 0.551514,0.063686 0.726386,0.191056 0.181598,0.134076 0.289216,0.37541 0.322846,0.724003 z M 0,7.179646 H 0.847462 V 3.237855 c 0,-0.167593 -0.003367,-0.351945 -0.010093,-0.553058 0,-0.194408 -0.003357,-0.388816 -0.010083,-0.583224 C 0.82056,1.907165 0.810469,1.732868 0.797017,1.578682 0.790291,1.431201 0.783567,1.317238 0.776841,1.236793 h 0.040352 l 3.964889,5.942853 h 1.00887 V -4.5e-5 H 4.9435 v 3.901569 c 0,0.181 0.00336,0.375409 0.010083,0.583224 0.00673,0.214519 0.01345,0.418983 0.020176,0.613391 0.013452,0.201112 0.023544,0.37876 0.030269,0.532946 0.00673,0.154186 0.01345,0.268149 0.020176,0.341891 H 4.983852 L 1.00888,-4.5e-5 H 0 Z" /></g></g><g
       id="g52"><g
         transform="translate(239.38037,121.11072)"
         id="g54"><path
           id="path56"
           style="fill:#000000;fill-opacity:0.8;fill-rule:nonzero;stroke:none"
           d="M 4.025417,-4e-6 H 0 V 7.179688 H 4.025417 V 6.385296 H 0.90799 V 4.1429 H 3.843813 V 3.358563 H 0.90799 V 0.794387 h 3.117427 z" /></g></g><g
       id="g58"><g
         transform="translate(231.13525,121.01013)"
         id="g60"><path
           id="path62"
           style="fill:#000000;fill-opacity:0.8;fill-rule:nonzero;stroke:none"
           d="m 6.648497,3.700468 c 0,-0.55641 -0.07062,-1.062541 -0.211863,-1.518394 C 6.295391,1.732924 6.08352,1.344108 5.801035,1.015625 5.525276,0.687143 5.178898,0.435752 4.761896,0.261456 4.35162,0.087159 3.874083,1e-5 3.32929,1e-5 2.764319,1e-5 2.273334,0.087159 1.856332,0.261456 1.43933,0.442456 1.092952,0.693846 0.817193,1.015625 0.541433,1.344108 0.336297,1.736276 0.20178,2.192129 0.067263,2.647983 0,3.154114 0,3.710523 c 0,0.73741 0.121068,1.380968 0.363198,1.930673 0.24213,0.549706 0.60869,0.978745 1.099677,1.287116 0.497712,0.308371 1.123214,0.462557 1.876508,0.462557 0.719665,0 1.324994,-0.154186 1.81598,-0.462557 C 5.646349,6.626644 6.016267,6.197606 6.265123,5.641196 6.520705,5.091491 6.648497,4.444581 6.648497,3.700468 Z m -5.690062,0 c 0,-0.603336 0.084069,-1.122875 0.252215,-1.558617 C 1.378796,1.706109 1.637747,1.370923 1.987491,1.136292 2.343961,0.901661 2.791223,0.784347 3.32929,0.784347 c 0.544793,0 0.988698,0.117314 1.331716,0.351945 0.349744,0.234631 0.608695,0.569817 0.776841,1.005559 0.168146,0.435742 0.252215,0.955281 0.252215,1.558617 0,0.905003 -0.188321,1.612246 -0.564968,2.121729 C 4.748447,6.338384 4.15321,6.596478 3.339383,6.596478 2.79459,6.596478 2.343961,6.479162 1.987491,6.244532 1.637747,6.016605 1.378796,5.684771 1.21065,5.249028 1.042504,4.81999 0.958435,4.303803 0.958435,3.700468 Z" /></g></g><g
       id="g64"><g
         transform="translate(224.93677,121.11072)"
         id="g66"><path
           id="path68"
           style="fill:#000000;fill-opacity:0.8;fill-rule:nonzero;stroke:none"
           d="m 2.058102,7.179688 c 0.5986,0 1.099677,-0.056982 1.503227,-0.170946 C 3.971606,6.894779 4.277637,6.707075 4.479412,6.445629 4.687913,6.184184 4.792165,5.83559 4.792165,5.399848 4.792165,5.118291 4.73835,4.866901 4.630737,4.645679 4.52985,4.431159 4.37516,4.250159 4.166659,4.102677 3.964884,3.961899 3.716024,3.864695 3.420087,3.811064 V 3.760787 C 3.72275,3.713861 3.99515,3.626712 4.23728,3.499341 4.486136,3.371971 4.681181,3.19097 4.822424,2.956339 4.963667,2.721709 5.034287,2.416689 5.034287,2.041281 5.034287,1.605538 4.933402,1.233482 4.731627,0.92511 4.529852,0.623443 4.240636,0.392164 3.863989,0.231275 3.494068,0.077089 3.050163,-4e-6 2.532273,-4e-6 H 0 v 7.179692 z m 0.181604,-3.0569 c 0.618777,0 1.0425,0.097204 1.271178,0.291612 0.228679,0.201112 0.343022,0.496076 0.343022,0.884892 0,0.39552 -0.14124,0.677076 -0.423726,0.844669 C 3.154421,6.318258 2.710515,6.405407 2.098464,6.405407 H 0.90799 V 4.122788 Z M 0.90799,3.368619 V 0.764221 h 1.452782 c 0.638955,0 1.08286,0.124019 1.331716,0.372057 0.248856,0.248038 0.373281,0.573168 0.373281,0.975392 0,0.254742 -0.057172,0.475965 -0.171511,0.663669 -0.107613,0.187704 -0.292567,0.331834 -0.554875,0.43239 -0.255582,0.10726 -0.605327,0.16089 -1.049232,0.16089 z" /></g></g><g
       id="g70"><g
         transform="translate(218.19897,121.01001)"
         id="g72"><path
           id="path74"
           style="fill:#000000;fill-opacity:0.8;fill-rule:nonzero;stroke:none"
           d="m 3.450356,6.586468 c -0.383373,0 -0.72975,-0.067037 -1.039139,-0.201113 C 2.101828,6.257985 1.83952,6.066929 1.624293,5.812187 1.409066,5.564149 1.244285,5.25913 1.129946,4.897129 1.015607,4.541831 0.958435,4.139607 0.958435,3.690458 0.958435,3.10053 1.049228,2.587695 1.230826,2.151952 1.41915,1.71621 1.694916,1.381023 2.058112,1.146393 2.428033,0.911763 2.888754,0.794448 3.440273,0.794448 c 0.316114,0 0.615412,0.026815 0.897897,0.080445 0.282486,0.05363 0.558243,0.120667 0.827276,0.201112 V 0.291668 C 4.896413,0.191113 4.617289,0.117371 4.328077,0.070445 4.045592,0.023519 3.705939,5.6e-5 3.309114,5.6e-5 2.575997,5.6e-5 1.963944,0.15089 1.472958,0.452558 0.981972,0.754226 0.612054,1.183264 0.363198,1.739673 0.121068,2.296082 0,2.949696 0,3.700513 0,4.243515 0.073987,4.739591 0.221956,5.188741 0.37665,5.63789 0.598603,6.026707 0.887814,6.355189 c 0.295937,0.328482 0.65913,0.579872 1.089584,0.754169 0.430454,0.181001 0.924806,0.271501 1.483051,0.271501 0.369921,0 0.72639,-0.03687 1.069408,-0.110611 C 4.872875,7.196507 5.178897,7.092599 5.44793,6.958525 L 5.084733,6.1943 C 4.86278,6.294856 4.613929,6.385356 4.33817,6.4658 4.069137,6.546246 3.773196,6.586468 3.450356,6.586468 Z" /></g></g><g
       id="g76"><g
         transform="translate(207.80395,121.11072)"
         id="g78"><path
           id="path80"
           style="fill:#000000;fill-opacity:0.8;fill-rule:nonzero;stroke:none"
           d="M 0,7.179688 H 0.847462 V 3.237896 c 0,-0.167593 -0.003367,-0.351945 -0.010093,-0.553057 0,-0.194409 -0.003357,-0.388817 -0.010083,-0.583225 C 0.82056,1.907206 0.810469,1.732909 0.797017,1.578723 0.790291,1.431242 0.783567,1.317278 0.776841,1.236834 h 0.040352 l 3.964889,5.942854 h 1.00887 V -4e-6 H 4.9435 v 3.901569 c 0,0.181 0.00336,0.375409 0.010083,0.583224 0.00673,0.214519 0.01345,0.418983 0.020176,0.613391 0.013452,0.201112 0.023544,0.378761 0.030269,0.532946 0.00673,0.154186 0.01345,0.268149 0.020176,0.341891 H 4.983852 L 1.00888,-4e-6 H 0 Z" /></g></g><g
       id="g82"><g
         transform="translate(199.54858,121.01013)"
         id="g84"><path
           id="path86"
           style="fill:#000000;fill-opacity:0.8;fill-rule:nonzero;stroke:none"
           d="m 6.648497,3.700468 c 0,-0.55641 -0.07062,-1.062541 -0.211863,-1.518394 C 6.295391,1.732924 6.08352,1.344108 5.801035,1.015625 5.525276,0.687143 5.178898,0.435752 4.761896,0.261456 4.35162,0.087159 3.874083,1e-5 3.32929,1e-5 2.764319,1e-5 2.273334,0.087159 1.856332,0.261456 1.43933,0.442456 1.092952,0.693846 0.817193,1.015625 0.541433,1.344108 0.336297,1.736276 0.20178,2.192129 0.067263,2.647983 0,3.154114 0,3.710523 c 0,0.73741 0.121068,1.380968 0.363198,1.930673 0.24213,0.549706 0.60869,0.978745 1.099677,1.287116 0.497712,0.308371 1.123214,0.462557 1.876508,0.462557 0.719665,0 1.324994,-0.154186 1.81598,-0.462557 C 5.646349,6.626644 6.016267,6.197606 6.265123,5.641196 6.520705,5.091491 6.648497,4.444581 6.648497,3.700468 Z m -5.690062,0 c 0,-0.603336 0.084069,-1.122875 0.252215,-1.558617 C 1.378796,1.706109 1.637747,1.370923 1.987491,1.136292 2.343961,0.901661 2.791223,0.784347 3.32929,0.784347 c 0.544793,0 0.988698,0.117314 1.331716,0.351945 0.349744,0.234631 0.608695,0.569817 0.776841,1.005559 0.168146,0.435742 0.252215,0.955281 0.252215,1.558617 0,0.905003 -0.188321,1.612246 -0.564968,2.121729 C 4.748447,6.338384 4.15321,6.596478 3.339383,6.596478 2.79459,6.596478 2.343961,6.479162 1.987491,6.244532 1.637747,6.016605 1.378796,5.684771 1.21065,5.249028 1.042504,4.81999 0.958435,4.303803 0.958435,3.700468 Z" /></g></g><g
       id="g88"><g
         transform="translate(193.80371,121.11072)"
         id="g90"><path
           id="path92"
           style="fill:#000000;fill-opacity:0.8;fill-rule:nonzero;stroke:none"
           d="m 1.906777,7.179688 c 0.941618,0 1.627649,-0.184353 2.058102,-0.553058 C 4.395333,6.257925 4.610561,5.738386 4.610561,5.068013 4.610561,4.773049 4.560114,4.488141 4.459227,4.213288 4.365065,3.945139 4.207008,3.703805 3.985055,3.489286 3.763103,3.274767 3.467168,3.103822 3.097246,2.97645 2.727325,2.855783 2.273333,2.79545 1.735266,2.79545 H 0.907985 V -4e-6 H 0 V 7.179688 Z M 1.826063,6.405407 H 0.907985 V 3.569731 h 0.726391 c 0.457357,0 0.837371,0.046926 1.140034,0.140778 0.302663,0.100555 0.527978,0.258093 0.675946,0.472613 0.147969,0.214519 0.221951,0.496075 0.221951,0.844669 0,0.462557 -0.14797,0.807799 -0.443907,1.035726 -0.295937,0.227927 -0.763382,0.34189 -1.402337,0.34189 z" /></g></g><g
       id="g94"><g
         transform="translate(188.19751,121.11072)"
         id="g96"><path
           id="path98"
           style="fill:#000000;fill-opacity:0.8;fill-rule:nonzero;stroke:none"
           d="M 4.025412,-4e-6 H 0 V 7.179688 H 4.025412 V 6.385296 H 0.907985 V 4.1429 H 3.843818 V 3.358563 H 0.907985 V 0.794387 h 3.117427 z" /></g></g><g
       id="g100"><g
         transform="translate(182.90698,121.11072)"
         id="g102"><path
           id="path104"
           style="fill:#000000;fill-opacity:0.8;fill-rule:nonzero;stroke:none"
           d="M 4.06577,7.179688 V 6.37524 H 0.907985 V -4e-6 H 0 v 7.179692 z" /></g></g><g
       id="g106"><g
         transform="translate(174.27637,121.11072)"
         id="g108"><path
           id="path110"
           style="fill:#000000;fill-opacity:0.8;fill-rule:nonzero;stroke:none"
           d="M 4.025412,-4e-6 H 0 V 7.179688 H 4.025412 V 6.385296 H 0.907985 V 4.1429 H 3.843818 V 3.358563 H 0.907985 V 0.794387 h 3.117427 z" /></g></g><g
       id="g112"><g
         transform="translate(166.54272,121.11072)"
         id="g114"><path
           id="path116"
           style="fill:#000000;fill-opacity:0.8;fill-rule:nonzero;stroke:none"
           d="M 0,7.179688 H 0.847457 V 3.237896 c 0,-0.167593 -0.003362,-0.351945 -0.010088,-0.553057 0,-0.194409 -0.003367,-0.388817 -0.010093,-0.583225 C 0.82055,1.907206 0.810464,1.732909 0.797012,1.578723 0.790286,1.431242 0.783562,1.317278 0.776836,1.236834 H 0.817188 L 4.782072,7.179688 H 5.790947 V -4e-6 H 4.943491 v 3.901569 c 0,0.181 0.00337,0.375409 0.010092,0.583224 0.00673,0.214519 0.01345,0.418983 0.020176,0.613391 0.013452,0.201112 0.023538,0.378761 0.030264,0.532946 0.00673,0.154186 0.013455,0.268149 0.020181,0.341891 H 4.983847 L 1.008875,-4e-6 H 0 Z" /></g></g><g
       id="g118"><g
         transform="translate(160.29614,121.11072)"
         id="g120"><path
           id="path122"
           style="fill:#000000;fill-opacity:0.8;fill-rule:nonzero;stroke:none"
           d="M 5.256243,-4e-6 H 4.166659 L 0.907985,3.64012 V -4e-6 H 0 V 7.179688 H 0.907985 V 3.700453 l 3.17796,3.479235 H 5.115001 L 1.987486,3.690398 Z" /></g></g><g
       id="g124"><g
         transform="translate(153.823,121.11072)"
         id="g126"><path
           id="path128"
           style="fill:#000000;fill-opacity:0.8;fill-rule:nonzero;stroke:none"
           d="M 0,-4e-6 V 7.179688 H 0.907988 V 4.1429 H 2.259882 C 2.932466,4.1429 3.46717,4.052399 3.863994,3.871398 4.260819,3.690398 4.546668,3.445712 4.721539,3.13734 4.896411,2.828969 4.983847,2.483727 4.983847,2.101614 4.983847,1.679279 4.886324,1.310575 4.691275,0.995499 4.502952,0.680424 4.217103,0.435739 3.83373,0.261442 3.450357,0.087145 2.962732,-4e-6 2.370858,-4e-6 Z m 2.280058,0.774281 c 0.585148,0 1.025691,0.107259 1.321628,0.321779 0.295937,0.221222 0.443907,0.556408 0.443907,1.005558 0,0.308372 -0.073987,0.553058 -0.221956,0.734058 C 3.682395,3.023376 3.470533,3.157451 3.188048,3.237896 2.912289,3.318341 2.565906,3.358563 2.148904,3.358563 H 0.907988 V 0.774277 Z" /></g></g><g
       id="g130"><g
         transform="translate(146.34521,121.11072)"
         id="g132"><path
           id="path134"
           style="fill:#000000;fill-opacity:0.8;fill-rule:nonzero;stroke:none"
           d="M 5.508463,-4e-6 H 4.600473 V 3.348507 H 0.907988 V -4e-6 H 0 V 7.179688 H 0.907988 V 4.1429 h 3.692485 v 3.036788 h 0.90799 z" /></g></g><g
       id="g136"><g
         transform="translate(140.73901,121.11072)"
         id="g138"><path
           id="path140"
           style="fill:#000000;fill-opacity:0.8;fill-rule:nonzero;stroke:none"
           d="M 4.025414,-4e-6 H 0 V 7.179688 H 4.025414 V 6.385296 H 0.907987 V 4.1429 H 3.843815 V 3.358563 H 0.907987 V 0.794387 h 3.117427 z" /></g></g><g
       id="g142"><g
         transform="translate(132.62769,121.00012)"
         id="g144"><path
           id="path146"
           style="fill:#000000;fill-opacity:0.8;fill-rule:nonzero;stroke:none"
           d="m 6.154144,0.110592 h -0.90799 v 6.3853 H 2.966096 C 2.919015,6.127187 2.86857,5.73837 2.814763,5.329443 2.760957,4.927219 2.703788,4.528347 2.643255,4.132828 2.589448,3.737308 2.535641,3.365251 2.481834,3.016657 2.428028,2.668064 2.374221,2.363044 2.320414,2.101599 2.232978,1.652449 2.125365,1.270336 1.997574,0.955261 1.869783,0.640186 1.698274,0.402204 1.483047,0.241314 1.274546,0.080425 0.998787,-2e-5 0.655769,-2e-5 0.54143,-2e-5 0.423728,0.013387 0.302663,0.040202 0.188323,0.060314 0.087436,0.087129 0,0.120647 V 0.874816 C 0.073984,0.841298 0.158057,0.811131 0.252219,0.784317 0.346381,0.764205 0.447268,0.754149 0.554881,0.754149 c 0.201776,0 0.359833,0.080445 0.474173,0.241334 0.121065,0.167594 0.215226,0.372057 0.282485,0.613391 0.067258,0.248038 0.124427,0.492724 0.171508,0.734059 0.040355,0.194408 0.087436,0.452501 0.141242,0.77428 0.053807,0.328483 0.110977,0.710595 0.17151,1.146338 0.067258,0.435742 0.134517,0.908355 0.201775,1.417838 0.073984,0.516187 0.144606,1.052485 0.211864,1.608894 h 3.944706 z" /></g></g><g
       id="g148"><g
         transform="translate(126.17432,121.11072)"
         id="g150"><path
           id="path152"
           style="fill:#000000;fill-opacity:0.8;fill-rule:nonzero;stroke:none"
           d="M 5.498375,-1.9e-5 4.630741,2.222267 H 1.775622 L 0.918077,-1.9e-5 H 0 l 2.814764,7.209858 h 0.81719 L 6.436629,-1.9e-5 Z M 3.551244,5.198721 C 3.531066,5.252351 3.497437,5.349555 3.450356,5.490333 3.403275,5.631111 3.356195,5.775242 3.309114,5.922724 3.268759,6.07691 3.23513,6.194224 3.208227,6.274669 3.174598,6.140594 3.137605,6.003168 3.09725,5.86239 3.063621,5.728315 3.026628,5.604297 2.986273,5.490333 2.952644,5.37637 2.922377,5.279166 2.895474,5.198721 L 2.078284,3.026714 h 2.280061 z" /></g></g><g
       id="g154"><g
         transform="translate(118,121.11072)"
         id="g156"><path
           id="path158"
           style="fill:#000000;fill-opacity:0.8;fill-rule:nonzero;stroke:none"
           d="m 3.17796,-4e-6 -2.370859,6.2948 H 0.766746 C 0.780198,6.160721 0.790286,5.989776 0.797012,5.78196 0.810464,5.574145 0.820553,5.346218 0.827278,5.09818 0.834004,4.856846 0.837367,4.608808 0.837367,4.354067 V -4e-6 H 0 V 7.179688 H 1.341805 L 3.561332,1.297167 H 3.601688 L 5.86157,7.179688 H 7.193287 V -4e-6 h -0.8979 V 4.4144 c 0,0.234631 0.00336,0.465909 0.010089,0.693836 0.00673,0.23463 0.016814,0.452502 0.030266,0.653613 0.013452,0.207816 0.02354,0.382112 0.030266,0.52289 H 6.325653 L 3.924528,-4e-6 Z" /></g></g><g
       id="g160"><g
         transform="translate(209.34912,174.77844)"
         id="g162"><path
           id="path164"
           style="fill:#526edf;fill-opacity:1;fill-rule:nonzero;stroke:none"
           d="M 4,91.582436 C 32.5,96.582375 57.5,55.582481 0,11.082443 64.5,48.582497 36,104.5824 4,91.582436 Z" /></g><g
         clip-path="url(#clipPath170)"
         id="g166"><g
           transform="translate(209.34912,174.77844)"
           id="g172"><path
             id="path174"
             style="fill:#526edf;fill-opacity:1;fill-rule:nonzero;stroke:none"
             d="M 4,91.582436 3.623624,92.508904 4.172797,90.597481 Z M 0,11.082443 -0.612035,11.873276 0.502621,10.217934 Z M 4.172797,90.597481 C 17.877775,93.001831 30.733828,84.366989 33.26461,69.724617 35.798923,55.061821 28.000847,34.017174 -0.612035,11.873276 l 1.22407,-1.581665 C 29.499153,32.647751 37.951077,54.353069 35.23539,70.065247 32.516174,85.797836 18.622225,95.162979 3.827203,92.56739 Z m 0.203579,0.05849 C 12.071402,93.782066 19.50869,92.754349 25.400213,88.923744 31.308695,85.082108 35.715424,78.382469 37.203228,70.093277 40.168289,53.573666 31.512135,30.560207 -0.502621,11.946953 L 0.502621,10.217934 C 32.987865,29.104736 42.331711,52.841251 39.171772,70.446609 37.597076,79.21991 32.910053,86.426498 26.490412,90.600487 20.05381,94.7855 11.928598,95.88279 3.623624,92.508904 l 0.752752,-1.852936 z" /></g></g></g><g
       id="g176"><g
         transform="matrix(-1,0,0,1,213.34912,165.00012)"
         id="g178"><path
           id="path180"
           style="fill:#526edf;fill-opacity:1;fill-rule:nonzero;stroke:none"
           d="M 35,64.860809 C 62.5,98.860756 23.5,137.36075 0,101.86083 c 21.5,23.99989 53.5,2.49989 32,-33.000112 -8.478874,-14 -28.1,-36.699837 -26.5,-47.49984 0.8,7.199997 17.367558,28.49984 29.5,43.499931 z" /></g><g
         clip-path="url(#clipPath186)"
         id="g182"><g
           transform="matrix(-1,0,0,1,213.34912,165.00012)"
           id="g188"><path
             id="path190"
             style="fill:#526edf;fill-opacity:1;fill-rule:nonzero;stroke:none"
             d="m 0,101.86083 -0.833852,0.55198 1.578686,-1.21923 z m 35,-37.000021 0.777512,-0.628875 v 0 z M 5.5,21.360878 4.510797,21.214333 6.493884,21.25045 Z m 26.5,47.49984 0.855358,-0.518036 v 0 z M 0.833852,101.30884 c 5.759302,8.7002 12.37273,12.7321 18.545436,13.5369 6.176809,0.80534 12.094009,-1.59495 16.531547,-6.12244 8.860501,-9.040118 11.773918,-26.589396 -1.688347,-43.23363 l 1.555024,-1.257736 c 14.037735,17.355728 11.201152,36.056416 1.561653,45.891306 -4.812462,4.91002 -11.332762,7.60348 -18.218453,6.70572 -6.889794,-0.8983 -13.963866,-5.36638 -19.954564,-14.41615 z M 34.222488,65.48967 C 28.153656,57.986401 20.962532,48.891617 15.185306,40.765228 12.297561,36.703255 9.751313,32.866867 7.872705,29.582336 6.020655,26.344246 4.731549,23.500198 4.506116,21.471306 L 6.493884,21.25045 c 0.174567,1.571106 1.256405,4.089539 3.114912,7.338921 1.831947,3.202942 4.335867,6.979019 7.206567,11.017013 5.739662,8.073555 12.898539,17.128739 18.962149,24.62555 z M 0.744834,101.19358 c 10.482183,11.70099 23.244546,12.0942 30.731826,5.7183 7.485891,-6.37472 10.273309,-20.022003 -0.33202,-37.533126 l 1.710718,-1.036072 c 10.894673,17.988876 8.432091,32.841588 -0.08202,40.091908 -8.512718,7.24912 -22.500355,6.39239 -33.518172,-5.90651 z M 31.14464,69.378754 C 29.045782,65.913193 26.249723,61.897236 23.240004,57.627514 20.238161,53.368969 17.028564,48.864624 14.134662,44.459892 11.242654,40.058052 8.641302,35.719177 6.862019,31.782051 5.098988,27.880882 4.066519,24.213203 4.510797,21.214333 l 1.978406,0.29309 c -0.355722,2.401131 0.46445,5.620926 2.195344,9.450982 1.714644,3.794097 4.248502,8.030181 7.121636,12.403297 2.871239,4.370232 6.056711,8.840847 9.068514,13.113522 3.003925,4.261497 5.840084,8.333019 7.980661,11.867458 z" /></g></g></g><g
       transform="rotate(0.23256415,-48836.499,50474.764)"
       id="g192"><path
         id="path194"
         style="fill:#526edf;fill-opacity:1;fill-rule:nonzero;stroke:none"
         d="m 32.494095,34.66394 c -20.999954,5.5 -23.499933,22 -24.499954,30 -16.000054,-36.400001 -4.333358,-58.166668 3.500021,-64.5 -1.958814,5.166249 -3.920235,14.67429 -2.5,20 2.399999,-5.599998 10.666666,-7.666668 14.5,-8 -15.834989,23.674118 -5.355372,18.631535 8.999933,22.5 z" /></g><g
       transform="rotate(0.23256415,-47993.796,50476.524)"
       id="g196"><path
         id="path198"
         style="fill:#526edf;fill-opacity:1;fill-rule:nonzero;stroke:none"
         d="m 7.994141,68.084473 0.496138,0.06202 -0.224746,1.797935 -0.729124,-1.658752 z m 24.499954,-30 0.1301,-0.482781 1.817078,0.48967 -1.8205,0.476799 z m -8.999933,-22.5 -0.04331,-0.49812 1.038429,-0.0903 -0.579514,0.866401 -0.415601,-0.277984 z m -14.5,8 0.459572,0.19696 -0.569904,1.329773 -0.372785,-1.3979 z m 2.5,-20 -0.31436,-0.388817 1.437039,-1.16185 -0.655157,1.727928 z m -3.99616,64.43798 c 0.500788,-4.006225 1.384019,-10.21978 4.813747,-16.126548 3.441277,-5.926659 9.425765,-11.51109 20.055667,-14.295121 l 0.253357,0.967377 C 22.250721,41.28413 16.485243,46.699699 13.176538,52.398041 9.856281,58.116272 8.989511,64.152718 8.490279,68.146492 Z m 24.865993,-29.4552 c -3.55588,-0.95824 -6.863127,-1.362957 -9.638174,-1.807537 -1.379206,-0.220959 -2.635725,-0.453434 -3.706158,-0.773102 -1.067543,-0.318802 -1.992752,-0.736233 -2.680594,-1.352672 -0.703522,-0.63049 -1.133205,-1.446614 -1.238598,-2.496739 -0.103413,-1.030391 0.106801,-2.26577 0.628856,-3.75864 1.042791,-2.981964 3.388993,-7.151314 7.349233,-13.072075 l 0.831203,0.555969 c -3.957254,5.916298 -6.239221,9.994419 -7.23649,12.846203 -0.497972,1.424008 -0.660761,2.502072 -0.577801,3.328682 0.08098,0.806873 0.397045,1.3913 0.910994,1.851898 0.529631,0.474652 1.293619,0.838845 2.299341,1.139187 1.002834,0.299481 2.203652,0.523667 3.578203,0.743881 2.73247,0.43776 6.118412,0.853394 9.740185,1.829384 z M 23.537476,16.082592 c -1.871176,0.162712 -4.841063,0.75161 -7.628616,1.984173 -2.797157,1.236809 -5.327736,3.084091 -6.455126,5.714668 L 8.534589,23.387512 c 1.27261,-2.969421 4.075364,-4.955475 6.969873,-6.235332 2.904113,-1.284104 5.984227,-1.895207 7.946386,-2.065827 l 0.08663,0.996239 z M 8.511045,23.713306 C 7.77375,20.948536 7.922184,17.156788 8.482637,13.449928 9.04513,9.729576 10.033582,6.026337 11.026639,3.407211 l 0.935045,0.354523 C 10.995928,6.308857 10.024262,9.942764 9.4714,13.599422 8.916498,17.269569 8.794339,20.894699 9.47728,23.455639 Z M 11.808521,3.973289 C 4.190735,10.132313 -7.480036,31.638298 8.451872,67.88327 L 7.536409,68.285675 C -8.53179,31.730644 3.130831,9.703297 11.179802,3.195656 Z" /></g><g
       id="g200"><g
         transform="rotate(0.23256415,-59834.86,53653.134)"
         id="g202"><path
           id="path204"
           style="fill:#526edf;fill-opacity:1;fill-rule:nonzero;stroke:none"
           d="m 12,6.048584 c 0,-3.313708 -2.686292,-6 -6,-6 -3.313709,0 -6,2.686292 -6,6 0,3.313708 2.686291,6 6,6 3.313708,0 6,-2.686292 6,-6 z" /></g><g
         clip-path="url(#clipPath210)"
         id="g206"><g
           transform="rotate(0.23256415,-59834.86,53653.134)"
           id="g212"><path
             id="path214"
             style="fill:#526edf;fill-opacity:1;fill-rule:nonzero;stroke:none"
             d="m 11,6.048584 c 0,-2.761424 -2.238576,-5 -5,-5 v -2 c 3.865993,0 7,3.134006 7,7 z m -5,-5 c -2.761424,0 -5,2.238576 -5,5 h -2 c 0,-3.865994 3.134007,-7 7,-7 z m -5,5 c 0,2.761424 2.238576,5 5,5 v 2 c -3.865993,0 -7,-3.134007 -7,-7 z m 5,5 c 2.761424,0 5,-2.238576 5,-5 h 2 c 0,3.865993 -3.134007,7 -7,7 z" /></g></g></g><g
       transform="rotate(-1.0309787,12965.257,-10178.934)"
       id="g216"><path
         id="path218"
         style="fill:#fbb0da;fill-opacity:1;fill-rule:nonzero;stroke:none"
         d="m 16.863737,25.458862 c -1.98397,-0.799999 -8.762529,-0.333334 -11.903814,0 C 15.943895,17.154732 7.012685,13.993517 0,10.458843 c 0,0 5.428705,-0.253313 9.561975,0.08002 0.544901,-2.490599 -3.8734,-7.070841 -6.090029,-10.080002 18.847708,8.5 22.319695,32 22.319695,32 0,0 -6.447942,-6 -8.927904,-7 z" /></g><g
       transform="rotate(-1.0309787,12819.393,-10177.623)"
       id="g220"><path
         id="path222"
         style="fill:#fbb0da;fill-opacity:1;fill-rule:nonzero;stroke:none"
         d="m 4.959923,28.083618 0.052761,0.497208 -1.790879,0.190037 1.436583,-1.086089 z m 11.903814,0 0.186987,-0.46372 v 0 z m 8.927904,7 0.494631,-0.07308 0.208349,1.41021 -1.04359,-0.971093 0.34061,-0.366039 z m -22.319695,-32 -0.402569,0.296543 -1.132406,-1.537285 1.74053,0.784951 z m 6.090029,10.080002 0.488446,0.106865 -0.093338,0.426622 -0.435301,-0.0351 0.040193,-0.498383 z M 0,13.083599 l -0.225049,0.446489 -1.700616,-0.857177 1.902359,-0.08877 z m 4.907163,14.502812 c 1.580479,-0.167712 4.074276,-0.368889 6.426175,-0.427638 1.175564,-0.02936 2.323602,-0.02337 3.308084,0.04155 0.968072,0.06384 1.833451,0.187368 2.409302,0.419571 l -0.373974,0.92744 c -0.416132,-0.167799 -1.142064,-0.285934 -2.101128,-0.34918 -0.942655,-0.06216 -2.057581,-0.06866 -3.217313,-0.03969 -2.318694,0.05792 -4.78482,0.25674 -6.345625,0.422363 z m 12.143561,0.03349 c 0.684534,0.276028 1.597284,0.873464 2.551033,1.576967 0.965748,0.712351 2.013617,1.563938 2.978739,2.379932 0.965963,0.816704 1.853414,1.601471 2.499134,2.18182 0.322971,0.290276 0.585735,0.529652 0.767923,0.696614 0.0911,0.08349 0.16207,0.148884 0.210364,0.1935 0.02415,0.02231 0.04263,0.03943 0.05512,0.05101 0.0062,0.0058 0.011,0.0102 0.01421,0.01319 0.0016,0.0015 0.0028,0.0026 0.0037,0.0034 4.17e-4,3.89e-4 7.38e-4,6.87e-4 9.61e-4,8.93e-4 1.1e-4,1.03e-4 2.04e-4,1.9e-4 2.59e-4,2.44e-4 6.9e-5,6.1e-5 1.13e-4,1.03e-4 -0.340498,0.366142 -0.34061,0.366039 -0.340616,0.366036 -0.340645,0.366005 -4.2e-5,-3.8e-5 -9.7e-5,-8.8e-5 -1.81e-4,-1.68e-4 -1.71e-4,-1.56e-4 -4.38e-4,-4.08e-4 -8.03e-4,-7.44e-4 -7.3e-4,-6.79e-4 -0.0018,-0.0017 -0.0033,-0.0031 -0.003,-0.0028 -0.0075,-0.007 -0.01356,-0.01259 -0.01206,-0.01118 -0.03009,-0.02788 -0.05377,-0.04976 -0.04737,-0.04376 -0.11735,-0.108249 -0.207405,-0.190777 -0.180123,-0.165069 -0.440478,-0.402256 -0.76075,-0.690105 -0.64077,-0.575901 -1.520302,-1.353634 -2.47632,-2.16193 -0.956858,-0.809008 -1.985968,-1.644919 -2.926699,-2.338818 -0.952728,-0.702747 -1.775957,-1.23031 -2.331404,-1.454283 l 0.373974,-0.92744 z m 8.740917,7.46372 c -0.494631,0.07308 -0.494617,0.07317 -0.494617,0.07317 -1.9e-5,-1.22e-4 -3.3e-5,-2.14e-4 -6.7e-5,-4.5e-4 -7.2e-5,-4.77e-4 -1.96e-4,-0.0013 -3.76e-4,-0.0025 -3.56e-4,-0.0024 -9.31e-4,-0.0062 -0.0017,-0.01134 -0.0016,-0.01036 -0.0041,-0.0263 -0.0075,-0.04768 -0.0068,-0.04275 -0.01739,-0.10722 -0.03205,-0.192245 C 25.226011,34.73252 25.180321,34.480285 25.115354,34.15525 24.985399,33.505116 24.778442,32.56411 24.47138,31.407198 23.857035,29.092545 22.84317,25.918167 21.246254,22.481834 18.049246,15.602329 12.538845,7.721132 3.266391,3.539412 l 0.41111,-0.911585 c 9.575254,4.318277 15.224702,12.43708 18.475613,19.432575 1.627045,3.501167 2.659157,6.73304 3.284802,9.090261 0.312931,1.179026 0.524471,2.140364 0.658029,2.808592 0.06678,0.334145 0.11409,0.595093 0.144833,0.773426 0.01537,0.08917 0.02661,0.157692 0.03407,0.204392 0.0037,0.02335 0.0065,0.04124 0.0084,0.05354 9.44e-4,0.0061 0.0017,0.01089 0.0022,0.01422 2.51e-4,0.0017 4.46e-4,0.003 5.89e-4,0.0039 7e-5,4.77e-4 1.37e-4,9.23e-4 1.73e-4,0.0012 5.2e-5,3.55e-4 9.2e-5,6.22e-4 -0.494539,0.0737 z M 3.874516,2.787075 C 4.420633,3.528452 5.103604,4.368206 5.824811,5.264393 6.542,6.15559 7.293097,7.097895 7.958919,8.026787 c 0.664114,0.92651 1.256729,1.857818 1.648996,2.728988 0.38641,0.85816 0.613451,1.733368 0.442506,2.51471 L 9.073528,13.056755 C 9.175035,12.592796 9.054126,11.961502 8.696088,11.166349 8.343907,10.384205 7.795578,9.515394 7.14615,8.609373 6.49843,7.705734 5.763391,6.783098 5.04575,5.891342 4.332126,5.004576 3.631573,4.143366 3.069377,3.380161 Z M 9.521782,13.662003 C 7.477983,13.497177 5.105396,13.476974 3.236791,13.498575 c -0.932795,0.01078 -1.737019,0.03194 -2.307819,0.05039 -0.285358,0.0092 -0.512265,0.01777 -0.667603,0.024 -0.077666,0.0031 -0.137432,0.0056 -0.177658,0.0074 -0.020113,8.76e-4 -0.03534,0.0016 -0.045476,0.002 -0.005068,2.28e-4 -0.008863,4.02e-4 -0.01136,5.16e-4 -0.001249,5.8e-5 -0.002172,10e-5 -0.002768,1.28e-4 -2.98e-4,1.4e-5 -5.14e-4,2.3e-5 -6.48e-4,2.9e-5 -6.7e-5,4e-6 -1.05e-4,6e-6 -1.39e-4,7e-6 -1.7e-5,0 -1.4e-5,0 -0.02332,-0.499456 -0.023306,-0.499456 -0.023261,-0.499458 -0.023196,-0.499462 4.9e-5,-2e-6 1.35e-4,-6e-6 2.33e-4,-10e-6 1.97e-4,-9e-6 4.76e-4,-2.2e-5 8.38e-4,-4e-5 7.23e-4,-3.2e-5 0.001774,-8.2e-5 0.003151,-1.45e-4 0.002753,-1.25e-4 0.006808,-3.1e-4 0.012137,-5.51e-4 0.01066,-4.8e-4 0.026421,-0.0012 0.047078,-0.0021 0.041314,-0.0018 0.102217,-0.0044 0.181065,-0.0075 0.15769,-0.0063 0.387192,-0.01496 0.675357,-0.02428 0.576247,-0.01863 1.387528,-0.03997 2.328569,-0.05085 1.879065,-0.02172 4.287465,-0.0019 6.376935,0.166595 z M 0.225049,12.63711 c 1.729144,0.871557 3.633698,1.747635 5.296967,2.677204 1.662116,0.928924 3.169884,1.955931 4.103838,3.176979 0.961154,1.256613 1.313983,2.723402 0.64439,4.425383 -0.648806,1.649145 -2.239784,3.472358 -5.008786,5.565786 L 4.658388,27.684774 C 7.381372,25.626137 8.792983,23.940149 9.339671,22.550571 9.865571,21.213829 9.606799,20.112373 8.831562,19.098831 8.029124,18.049725 6.675711,17.10467 5.034156,16.187235 3.393754,15.270445 1.55215,14.425867 -0.225049,13.530088 Z" /></g><g
       id="g224"><g
         transform="rotate(-1.0309787,14450.246,-10887.106)"
         id="g226"><path
           id="path228"
           style="fill:#fbb0da;fill-opacity:1;fill-rule:nonzero;stroke:none"
           d="m 7,3.624878 c 0,-1.932997 -1.567003,-3.5 -3.5,-3.5 -1.932997,0 -3.5,1.567003 -3.5,3.5 0,1.932997 1.567003,3.5 3.5,3.5 1.932997,0 3.5,-1.567003 3.5,-3.5 z" /></g><g
         clip-path="url(#clipPath234)"
         id="g230"><g
           transform="rotate(-1.0309787,14450.246,-10887.106)"
           id="g236"><path
             id="path238"
             style="fill:#fbb0da;fill-opacity:1;fill-rule:nonzero;stroke:none"
             d="m 6,3.624878 c 0,-1.380712 -1.119288,-2.5 -2.5,-2.5 v -2 c 2.485281,0 4.5,2.014718 4.5,4.5 z m -2.5,-2.5 c -1.380712,0 -2.5,1.119288 -2.5,2.5 h -2 c 0,-2.485282 2.014719,-4.5 4.5,-4.5 z m -2.5,2.5 c 0,1.380711 1.119288,2.5 2.5,2.5 v 2 c -2.485281,0 -4.5,-2.014719 -4.5,-4.5 z m 2.5,2.5 c 1.380712,0 2.5,-1.119289 2.5,-2.5 h 2 c 0,2.485281 -2.014719,4.5 -4.5,4.5 z" /></g></g></g><g
       id="g240"><g
         transform="translate(159,177)"
         id="g242"><path
           id="path244"
           style="fill:#fbb0da;fill-opacity:1;fill-rule:nonzero;stroke:none"
           d="m 0.405406,71 c -3.60197,28.5 17.708417,35.13431 27.892953,36 C -4.5,97 2.627718,65.296104 16.905495,48.452831 38.905296,22.5 43.661411,14.197411 47.976894,5.194176 56.676907,8.102913 69.648804,18.805824 75,24 67.5,11.5 54,3 45.387604,0 23.405445,40.067657 3.438643,47.000008 0.405406,71 Z" /></g><g
         clip-path="url(#clipPath250)"
         id="g246"><g
           transform="translate(159,177)"
           id="g252"><path
             id="path254"
             style="fill:#fbb0da;fill-opacity:1;fill-rule:nonzero;stroke:none"
             d="m 28.298359,107 0.291639,-0.95653 -0.376335,1.95294 z M 0.405406,71 -0.586702,70.874611 Z M 45.387604,0 44.51088,-0.480995 l 0.406864,-0.741608 0.798809,0.278252 z M 75,24 75.857491,23.485504 74.303497,24.71756 Z M 47.976894,5.194176 47.075134,4.76194 47.456718,3.965851 48.29398,4.245781 Z m -31.071399,43.258655 0.762809,0.646622 v 0 z M 28.213663,107.99641 C 23.003099,107.55351 14.895493,105.63679 8.527087,100.11862 2.097219,94.547188 -2.424942,85.419388 -0.586702,70.874611 l 1.984216,0.250778 c -1.76373,13.955223 2.568318,22.394577 8.439284,27.48172 5.93243,5.140401 13.572284,6.973691 18.546257,7.396481 z M -0.586702,70.874611 C 0.968986,58.565487 6.893143,50.639538 15.022464,40.885162 23.14963,31.133369 33.573605,19.454765 44.51088,-0.480995 l 1.753448,0.96199 C 35.219444,20.612892 24.668938,32.434296 16.558855,42.165588 8.450926,51.894299 2.875063,59.434521 1.397514,71.125389 Z M 45.716553,-0.944351 c 8.781643,3.05896 22.495002,11.68663 30.140938,24.429855 l -1.714982,1.028992 C 66.788445,12.257721 53.501804,3.885391 45.058655,0.944351 Z M 74.303497,24.71756 C 71.661346,22.152931 67.115089,18.207619 62.150551,14.544731 57.1647,10.866119 51.852283,7.544273 47.659809,6.14257 L 48.29398,4.245781 c 4.507537,1.507034 10.031074,4.991013 15.043975,8.689583 5.034214,3.714294 9.649502,7.717529 12.358548,10.347076 z M 48.878654,5.626411 C 44.509842,14.740906 39.69191,23.118546 17.668304,49.099453 L 16.142685,47.80621 C 38.118683,21.881454 42.812981,13.653915 47.075134,4.76194 Z m -31.21035,43.473042 c -7.021362,8.282993 -12.23925,20.180653 -11.721043,31.145985 0.258109,5.461616 1.936446,10.677391 5.506586,15.130928 3.571382,4.455078 9.08924,8.213654 17.136151,10.667104 l -0.583278,1.91306 C 19.654451,105.40998 13.76389,101.45557 9.89336,96.627319 6.02159,91.797516 4.224525,86.159615 3.949491,80.339851 3.401411,68.742409 8.886271,56.366489 16.142685,47.80621 Z" /></g></g></g><g
       transform="translate(109,137.93591)"
       id="g256"><path
         id="path258"
         style="fill:#000000;fill-opacity:1;fill-rule:nonzero;stroke:none"
         d="m 0,2.064087 z m 6.56,0 -6.08,21.664001 3.008,0.959999 5.056001,-19.392 4.767999,16.832001 h 3.808001 l 4.736,-16.832001 5.024,19.296002 2.816,-0.864001 -6.048,-21.664001 H 19.872002 L 15.136001,18.896088 10.336,2.064087 Z m 22.65875,0 z m 9.568001,-0.384001 c -1.578667,0 -2.997334,0.362667 -4.256001,1.088001 -1.258667,0.746666 -2.250667,1.770667 -2.976,3.072001 -0.704,1.322666 -1.055999,2.837333 -1.055999,4.544 0,1.791999 0.362667,3.338666 1.087999,4.64 0.725334,1.301332 1.717335,2.303999 2.976002,3.007999 1.258667,0.704001 2.666668,1.056 4.223999,1.056 1.557331,0 2.954666,-0.351999 4.192001,-1.056 1.258667,-0.704 2.250668,-1.706667 2.975998,-3.007999 0.74667,-1.28 1.120003,-2.805333 1.120003,-4.576 0,-1.770667 -0.362667,-3.317334 -1.088001,-4.640002 C 45.261417,4.506754 44.269417,3.49342 43.01075,2.768087 41.773418,2.042753 40.365417,1.680086 38.786751,1.680086 Z m 0,2.560002 c 1.685333,0 2.997333,0.565332 3.936001,1.695999 0.938667,1.152 1.408001,2.634667 1.408001,4.448001 0,1.109333 -0.234669,2.122666 -0.704003,3.04 -0.469333,0.938666 -1.109333,1.685333 -1.919998,2.239999 -0.789333,0.576001 -1.696003,0.864001 -2.720001,0.864001 -1.685333,0 -2.997334,-0.554667 -3.936001,-1.664001 -0.938667,-1.109333 -1.408001,-2.581333 -1.408001,-4.415999 0,-1.109334 0.234669,-2.144 0.704002,-3.104 C 34.616085,6.40542 35.245419,5.648087 36.034752,5.072086 36.845417,4.51742 37.762753,4.240088 38.786751,4.240088 Z M 48.34375,2.064087 Z m 2.560001,0 v 16.640001 h 2.784001 v -2.784 c 0.597332,0.896 1.354667,1.642666 2.271999,2.24 0.938667,0.618665 2.048,0.927999 3.327999,0.927999 1.877335,0 3.27467,-0.565332 4.192002,-1.695999 0.938667,-1.130667 1.407997,-2.624001 1.407997,-4.480001 v -10.848 h -2.879998 v 10.528001 c 0,1.194667 -0.288002,2.154667 -0.864002,2.88 -0.554664,0.725332 -1.333332,1.087999 -2.335998,1.087999 -0.981335,0 -1.909333,-0.351999 -2.784001,-1.056 -0.874668,-0.682666 -1.621334,-1.493333 -2.240001,-2.432 v -11.008 z m 16.377499,0 z m 8.863998,-0.384001 c -1.365333,0 -2.613327,0.352001 -3.743995,1.056002 -1.130669,0.704 -2.026665,1.695999 -2.688004,2.976 -0.661331,1.301332 -0.991997,2.826666 -0.991997,4.575999 0,1.685334 0.330666,3.189334 0.991997,4.512001 0.682671,1.322665 1.578667,2.367999 2.688004,3.136001 1.130668,0.767997 2.367996,1.151998 3.711998,1.151998 1.109337,0 2.05867,-0.223999 2.847999,-0.671999 0.810669,-0.448 1.440003,-0.906668 1.888001,-1.375999 v 8.703998 h 2.879997 v -19.648 c 0,-0.810668 0.192001,-1.344 0.576004,-1.600001 0.405335,-0.234667 0.842667,-0.351999 1.311997,-0.351999 l -0.608002,-2.24 c -2.026665,0 -3.263992,0.810667 -3.711998,2.431999 C 80.827911,3.674753 80.16658,3.066753 79.313248,2.512087 78.481247,1.95742 77.425247,1.680086 76.145248,1.680086 Z m 0.64,2.560002 c 0.789337,0 1.536003,0.181333 2.240005,0.543998 0.725334,0.384001 1.333329,0.874668 1.823998,1.472002 v 8.256 c -0.405335,0.512 -0.970665,0.981333 -1.695999,1.408 -0.725335,0.448 -1.525338,0.671999 -2.400002,0.671999 -1.024002,0 -1.920006,-0.277333 -2.688003,-0.831999 -0.767998,-0.554668 -1.365326,-1.301334 -1.792,-2.240001 -0.405327,-0.917332 -0.607994,-1.962666 -0.607994,-3.135999 0,-1.173334 0.223999,-2.229334 0.671997,-3.168001 0.447998,-0.917333 1.056,-1.642666 1.823997,-2.176 0.789337,-0.533333 1.664002,-0.799999 2.624001,-0.799999 z M 86.59375,2.064087 Z m 9.216003,-0.384001 c -2.389335,0 -4.288002,0.757334 -5.696006,2.272001 -1.386666,1.536002 -2.079995,3.680001 -2.079995,6.432001 0,1.664 0.309334,3.146666 0.927994,4.448 0.640007,1.322667 1.525337,2.357333 2.656006,3.104001 1.130669,0.767997 2.442665,1.151998 3.935997,1.151998 1.599999,0 2.922669,-0.351999 3.968002,-1.056 1.066669,-0.682666 1.866669,-1.610666 2.399999,-2.783999 0.53334,-1.173333 0.8,-2.464001 0.8,-3.872001 0,-0.746667 -0.032,-1.472 -0.096,-2.176 H 90.977753 c 0.191993,-1.557333 0.735992,-2.773333 1.631996,-3.647999 0.896004,-0.874666 2.080002,-1.312 3.552002,-1.312 0.959999,0 1.824005,0.096 2.592003,0.288 0.767997,0.213333 1.503996,0.479999 2.207996,0.799999 l 0.672,-2.464001 C 100.86575,2.522753 100.00175,2.24542 99.041748,2.032087 98.081749,1.797421 97.004417,1.680086 95.809753,1.680086 Z m -4.864006,9.856001 h 9.120003 c 0,1.621333 -0.405334,2.869333 -1.216003,3.744 -0.810662,0.874668 -1.930664,1.312 -3.359993,1.312 -1.237335,0 -2.261338,-0.437332 -3.072007,-1.312 -0.810661,-0.853333 -1.30133,-2.101333 -1.472,-3.744 z M 104,2.064087 Z m 2.56,0 v 16.640001 h 2.784 v -3.616001 c 0.27734,0.704001 0.65067,1.354668 1.12,1.952002 0.46933,0.618665 1.056,1.109331 1.76,1.471998 0.704,0.384001 1.52534,0.576 2.464,0.576 0.32,0 0.64,-0.02133 0.96,-0.064 0.32,-0.02133 0.58667,-0.064 0.8,-0.128 l -0.864,-2.976 c -0.40534,0.170666 -0.88534,0.255998 -1.44,0.255998 -0.78933,0 -1.54666,-0.223999 -2.272,-0.671999 -0.704,-0.448 -1.29066,-1.141333 -1.76,-2.079999 -0.448,-0.938667 -0.672,-2.133334 -0.672,-3.584 V 2.064086 Z m 19.815,0 z m 16.8,-0.384001 -10.88,10.688002 V 2.064087 h -3.04 v 22.400001 h 3.04 V 14.256087 l 9.53599,10.304 2.04801,-1.887998 -8.736,-9.088002 10.144,-9.728 z m 2.41875,0.384001 z m 2.56,0 v 16.640001 h 2.88 V 2.064087 Z m 1.44,19.488001 c -0.55467,0 -1.03467,0.202667 -1.44,0.608 -0.38401,0.405332 -0.57601,0.874666 -0.57601,1.408001 0,0.618665 0.18134,1.109333 0.54401,1.472 0.36267,0.362665 0.85333,0.543998 1.472,0.543998 0.55467,0 1.024,-0.202667 1.408,-0.607999 0.40534,-0.384001 0.60801,-0.853333 0.60801,-1.407999 0,-0.597334 -0.18134,-1.088 -0.54401,-1.472001 -0.36267,-0.362667 -0.85333,-0.544 -1.472,-0.544 z m 4,-19.488001 z m 8.864,-0.384001 c -1.36534,0 -2.61334,0.352001 -3.74401,1.056002 -1.13066,0.704 -2.02665,1.695999 -2.68798,2.976 -0.66133,1.301332 -0.99201,2.826666 -0.99201,4.575999 0,1.685334 0.33068,3.189334 0.99201,4.512001 0.68266,1.322665 1.57866,2.367999 2.68798,3.136001 1.13067,0.767997 2.368,1.151998 3.71201,1.151998 1.10933,0 2.05867,-0.223999 2.84799,-0.671999 0.81067,-0.448 1.44,-0.906668 1.888,-1.375999 v 8.703998 h 2.88001 v -19.648 c 0,-0.810668 0.192,-1.344 0.576,-1.600001 0.40534,-0.234667 0.84267,-0.351999 1.312,-0.351999 l -0.608,-2.24 c -2.02666,0 -3.264,0.810667 -3.71199,2.431999 -0.46935,-0.661333 -1.13068,-1.269333 -1.98401,-1.823999 -0.832,-0.554667 -1.888,-0.832001 -3.168,-0.832001 z m 0.64,2.560002 c 0.78934,0 1.53601,0.181333 2.24,0.543998 0.72533,0.384001 1.33333,0.874668 1.82399,1.472002 v 8.256 c -0.40532,0.512 -0.97065,0.981333 -1.696,1.408 -0.72532,0.448 -1.52533,0.671999 -2.39999,0.671999 -1.024,0 -1.92,-0.277333 -2.688,-0.831999 -0.76799,-0.554668 -1.36533,-1.301334 -1.792,-2.240001 -0.40533,-0.917332 -0.608,-1.962666 -0.608,-3.135999 0,-1.173334 0.224,-2.229334 0.672,-3.168001 0.448,-0.917333 1.056,-1.642666 1.824,-2.176 0.78933,-0.533333 1.66399,-0.799999 2.624,-0.799999 z m 10.121,-2.176001 z m 7.03999,-0.384001 c -1.25865,0 -2.39999,0.16 -3.42399,0.480002 -1.00267,0.319999 -1.83467,0.736 -2.496,1.247999 l 1.216,2.399999 c 0.55467,-0.469331 1.248,-0.863998 2.08,-1.184 0.85333,-0.298666 1.75999,-0.448 2.72,-0.448 1.19466,0 2.09067,0.192 2.688,0.576001 0.61867,0.405332 0.928,0.917333 0.928,1.535999 0,0.448 -0.11734,0.842668 -0.35201,1.184002 -0.21333,0.341333 -0.61865,0.671999 -1.21598,0.991999 -0.59734,0.341334 -1.46135,0.704001 -2.59202,1.088001 -1.55732,0.533333 -2.73066,1.162666 -3.51998,1.887999 -0.76801,0.746667 -1.15201,1.770667 -1.15201,3.072001 0,1.28 0.55467,2.357333 1.664,3.231999 1.13066,0.896 2.688,1.344 4.672,1.344 1.06666,0 2.016,-0.117332 2.848,-0.351999 0.832,-0.213333 1.57866,-0.490666 2.23999,-0.832001 l -0.79998,-2.367999 c -0.57601,0.341332 -1.23735,0.618667 -1.98401,0.832 -0.72533,0.213333 -1.536,0.319999 -2.43199,0.319999 -1.10933,0 -1.952,-0.223999 -2.528,-0.672 -0.57601,-0.447999 -0.86402,-0.938666 -0.86402,-1.472 0,-0.512 0.224,-0.949333 0.67201,-1.312 0.448,-0.362666 1.32267,-0.757333 2.624,-1.184 2.112,-0.703999 3.584,-1.482666 4.416,-2.335999 0.832,-0.853334 1.248,-1.92 1.248,-3.200001 0,-1.493334 -0.608,-2.677334 -1.82401,-3.552 -1.19465,-0.853335 -2.80532,-1.280001 -4.832,-1.280001 z" /></g><g
       transform="translate(109,137.93591)"
       id="g260"><text
         id="text264"
         style="font-variant:normal;font-weight:normal;font-size:32px;font-family:Arial;-inkscape-font-specification:Arial;writing-mode:lr-tb;fill:#000000;fill-opacity:1;fill-rule:nonzero;stroke:none"
         transform="matrix(1,0,0,-1,0,2.064087)"><tspan
           id="tspan262"
           y="0"
           x="0 29.21875 48.354748 67.298752 86.611252 104.01925 116.78725 126.38725 145.61925 153.61925 173.23524">Wonder Kids</tspan></text>
</g></g></svg>