<?xml version="1.0" encoding="UTF-8"?> <svg xmlns="http://www.w3.org/2000/svg" id="Слой_1" data-name="Слой 1" viewBox="0 0 254.1 320.71"> <defs> <style>.cls-1{fill:#476a5f;}.cls-2{fill:#f3bc41;}.cls-3{fill:#030202;}.cls-4{fill:#fff;}.cls-5{fill:#c99831;}.cls-6{fill:#efc04a;}.cls-7{fill:#1b1c20;}.cls-8{fill:#010101;}</style> </defs> <title>78787Монтажная область 1</title> <path class="cls-1" d="M120.52,279c-65,0-115.85,8.43-115.85,19.2s50.89,19.2,115.85,19.2,115.85-8.44,115.85-19.2S185.48,279,120.52,279Z"></path> <path class="cls-2" d="M250.07,183.31c-2.8-19.42-11.07-36.78-19.9-54.08q-13.53-26.47-26.29-53.34c-3.27-6.91-6.27-14.13-10.39-20.6-3-4.67-7-8.48-11-12.29-4.16-4-8.21-8.09-12.52-11.91a116.64,116.64,0,0,0-30.3-19.63c-10.49-4.59-21.95-7.62-33.48-7.17-10.11.4-19,4.15-28.1,8.15C65,18.2,53,25.63,49.57,40.54c-2.25,9.84-1.12,20.32.5,30.15a2.42,2.42,0,0,0,2.27,1.91A115.58,115.58,0,0,1,66.4,75.21c8,1.93,16.75,4.42,23.2,9.73,2.68,2.2,4.93,5.1,5.07,8.71a13.31,13.31,0,0,1-1.2,5.47c-1.58,3.93-3.28,7.82-4.78,11.79-4.76,12.56-7.75,25.85-1,38.3,2.76,5.12,8.45,9.4,9,15.46.4,4.33-1.65,8.47-4.08,11.93-5,7.05-12.26,12.61-19.47,17.2-8.15,5.19-14.28,13-19,21.41a61.71,61.71,0,0,0-8,32.36c.63,15.81,7.84,30.36,17.28,42.76a14,14,0,0,1-9.06-.92c-4.63-2.16-8-6.31-10.73-10.52-5.26-8.23-8.32-17.91-10.7-27.3a160.34,160.34,0,0,1-5.16-32.05c-.32-7-.09-14.34,2.1-21,1-3.21,2.91-7.46,6.33-8.77a4.63,4.63,0,0,1,3.28,0c2.84,1,5,3.35,8,4.22,7.57,2.22,14-5,12.36-12.5-1.21-5.46-8-8.12-12.93-8.94-8.89-3.32-20.47-2.23-26.87,5.31-6.74,7.94-7.2,20.17-7.84,30.18-1.43,22.39.49,46.35,10.5,66.75,5.48,11.15,13.52,20.85,24.08,27.52,12.64,8,27.84,10.83,42.62,10.65,16.64-.21,33.73-3.9,49.79-8.38,20.65-5.76,41-13.76,59.23-25,21-12.93,39.87-30.95,48.06-54.74A88.52,88.52,0,0,0,250.07,183.31Z"></path> <path class="cls-3" d="M125,16.3c-3.62-5.63-11.12-10.93-18.1-10.37-5.3.42-9.19,4.37-11.69,8.76a36,36,0,0,0-4,10.59A1.79,1.79,0,0,0,92,27l20,15.06a2.17,2.17,0,0,0,1.06.42,2,2,0,0,0,1.52-.28C122.88,36.83,131.35,26.15,125,16.3Z"></path> <path class="cls-4" d="M117,20.67c-2.49-3.63-7.51-7.1-12.12-6.43-3.31.48-5.67,3-7.22,5.85A25,25,0,0,0,95,27.14a.1.1,0,0,0,0,.09L109.35,38a.38.38,0,0,0,.27.05.91.91,0,0,0,.44-.06C115.55,34.41,121.47,27.19,117,20.67Z"></path> <path class="cls-3" d="M70.61,25.57C69.1,18.14,64.9,9,57,6.81,50.19,5,43.09,9.16,38.66,14c-4.74,5.18-5.11,11.65-1.51,17.55A33.07,33.07,0,0,0,47.32,41.67a2.62,2.62,0,0,0,2,.25,1.73,1.73,0,0,0,.9-.31l20-15A1,1,0,0,0,70.61,25.57Z"></path> <path class="cls-4" d="M66.27,26.72c-1.41-6.88-6.16-13.6-13.89-10.53-4.82,1.92-9.91,6.7-8.13,12.33,1.1,3.45,4.13,6.44,7.11,8.39a1.76,1.76,0,0,0,1.27-.1,2.46,2.46,0,0,0,.82-.28L66,27.1C66.08,27,66.3,26.89,66.27,26.72Z"></path> <path class="cls-5" d="M108,155c-1.41-10-3.22-19.92-4.18-30a123.5,123.5,0,0,1-.6-14.77c.15-5.5,1-11,1.31-16.46.88-14.31.47-29.46-3.62-43.32-.17-.58-.35-1.15-.55-1.72h0s0-.11-.07-.18a2.4,2.4,0,0,0-1.39-.72c-1.11-.42-2.44-.73-2.56-.4L86.23,75.15c-.69,1.89-1.57,3.8-2.09,5.74-.6,2.25.91,4,1.26,6.37,1,7.37-2.06,13.82-4.21,20.61-4.55,14.35-6.57,30.75-.24,44.91,2.15,4.82,5.89,9.38,5.78,14.89-.16,7.83-5.56,15-10.46,20.65-5.65,6.51-11.7,12.66-17.08,19.42-.59.74-3.39,3.48-3.16,4.65s3.37,1.86,4.16,2.14c14.54,5.29,29.22-.34,39.91-10.89C112.8,191.12,110.21,171,108,155Z"></path> <path class="cls-6" d="M119,55.27c-2.44-14.47-12.34-33.54-29.24-33.64-10.4-2.3-23-2.19-32.35,3.32C48.8,30,46.07,39,45.48,48.4c-.58,9.19,0,18.9,4.09,27.3,8.84,18.08,32.73,21,50.38,16.41C116.6,87.77,121.55,70.66,119,55.27Z"></path> <path class="cls-4" d="M79.34,67.41s-.65,14.46-6.57,9.2S76.06,60.84,79.34,67.41Z"></path> <path class="cls-4" d="M79.38,67.41S80,81.87,86,76.61,82.66,60.84,79.38,67.41Z"></path> <path class="cls-4" d="M51.75,52.22s9.8-11.9,21,1.4C72.74,53.62,60.85,62.71,51.75,52.22Z"></path> <path class="cls-3" d="M68.15,52.76a7.81,7.81,0,0,0-.92-2.53c-.61-1-1.19-1.1-1.57-1s-.87.4-1.06,1.54a7.78,7.78,0,0,0,.1,2.69C65.06,55.26,66,57,67,57a.58.58,0,0,0,.19,0C68.32,56.76,68.53,54.69,68.15,52.76Z"></path> <path class="cls-4" d="M89.53,52.22s8.4-11.2,19.59,2.1C109.12,54.32,98.63,62.71,89.53,52.22Z"></path> <path class="cls-3" d="M105.93,52.76a7.81,7.81,0,0,0-.92-2.53c-.61-1-1.19-1.1-1.57-1s-.87.4-1.06,1.54a7.78,7.78,0,0,0,.1,2.69c.36,1.82,1.25,3.56,2.31,3.56a.55.55,0,0,0,.18,0C106.1,56.76,106.31,54.69,105.93,52.76Z"></path> <path class="cls-4" d="M72.77,21.4s2,46,4,48.64h5.91l6.48-47.6S75.4,19.43,72.77,21.4Z"></path> <path class="cls-7" d="M83.76,60.65H75.22a.3.3,0,0,0-.19,0s0,0,0,.06c.1,1.34.23,2.68.37,4s.06,3.7.8,5c.42.72,1.21.51,2,.51h4.66c.06,0,.22,0,.23-.11l1.32-9.2C84.39,60.7,83.89,60.65,83.76,60.65Z"></path> <path class="cls-7" d="M84.6,68.89a.49.49,0,1,0-.49.49A.49.49,0,0,0,84.6,68.89Z"></path> <path class="cls-7" d="M82.14,71a.49.49,0,1,0,0,1,.49.49,0,0,0,0-1Z"></path> <path class="cls-7" d="M84.27,70.86a.5.5,0,1,0,.5-.49A.49.49,0,0,0,84.27,70.86Z"></path> <path class="cls-7" d="M84.77,72.34a.5.5,0,1,0,.49.49A.49.49,0,0,0,84.77,72.34Z"></path> <path class="cls-7" d="M76.22,71a.49.49,0,1,0,0,1,.49.49,0,1,0,0-1Z"></path> <path class="cls-7" d="M74.91,68.4a.49.49,0,1,0,0,1,.49.49,0,1,0,0-1Z"></path> <path class="cls-7" d="M72.94,70.37a.49.49,0,1,0,.49.49A.49.49,0,0,0,72.94,70.37Z"></path> <path class="cls-7" d="M74.25,72.34a.5.5,0,1,0,.49.49A.49.49,0,0,0,74.25,72.34Z"></path> <path class="cls-7" d="M57.35,64.53H30.76a.42.42,0,1,1,0-.84H57.35a.42.42,0,1,1,0,.84Z"></path> <path class="cls-7" d="M33.56,77.13a.42.42,0,0,1-.4-.29.44.44,0,0,1,.27-.54l23.08-7.69a.42.42,0,0,1,.54.26.43.43,0,0,1-.27.54l-23.09,7.7Z"></path> <path class="cls-7" d="M44.76,84.82a.4.4,0,0,1-.32-.14.43.43,0,0,1,0-.6l12.6-11.19a.41.41,0,0,1,.59,0,.41.41,0,0,1,0,.59L45,84.72A.42.42,0,0,1,44.76,84.82Z"></path> <path class="cls-7" d="M134,62.08H107.37a.42.42,0,0,1-.42-.42.42.42,0,0,1,.42-.42H134a.42.42,0,0,1,.42.42A.42.42,0,0,1,134,62.08Z"></path> <path class="cls-7" d="M131.16,74.68l-.13,0L107.94,67a.42.42,0,0,1-.27-.53.42.42,0,0,1,.54-.27l23.08,7.69a.42.42,0,0,1,.27.54A.42.42,0,0,1,131.16,74.68Z"></path> <path class="cls-7" d="M120,82.37a.42.42,0,0,1-.28-.1l-12.6-11.2a.42.42,0,0,1,.56-.63l12.6,11.2a.41.41,0,0,1,0,.59A.39.39,0,0,1,120,82.37Z"></path> <rect class="cls-7" x="74.68" y="72.66" width="9.37" height="0.85" transform="translate(6.05 152.22) rotate(-89.83)"></rect> <path class="cls-7" d="M75.56,77.2c-5.42-3.28-6.54-9.48-4-15.08,1.67-3.74,4.32-6.43,1.24-10.37-6.43-8.24-15.76-5.59-22.47.86-.59.58,1.77.37,2.24-.09,4.53-4.35,10-6.94,15.32-2.59,2.67,2.17,5.1,5.15,3.38,8.71-1.44,3-3.09,5.36-3.4,8.79a10.78,10.78,0,0,0,5.45,10.65c.64.39,2.75-.61,2.29-.88Z"></path> <path class="cls-7" d="M82.79,78.18c9.09-1.16,7-11.52,5.5-17.9-1-4.19.44-7.42,4.08-10,4.92-3.42,11.53-1,15.25,4.07.37.5,2.73-.29,2.3-.87a13.57,13.57,0,0,0-14.36-5.59c-4,.86-8.41,3.71-9.75,7.73-.84,2.51,0,4.88.56,7.31.87,3.77,2.63,13.45-3.15,14.19-1,.13-2.15,1.23-.43,1Z"></path> <path class="cls-5" d="M61.49,183.52a2,2,0,0,0,0-.56,9.56,9.56,0,0,0-9.72-8.85A10,10,0,0,0,42,184a9.55,9.55,0,0,0,9.51,9.41A10.06,10.06,0,0,0,61.46,184,2.07,2.07,0,0,0,61.49,183.52Z"></path> <path class="cls-8" d="M206.53,120.35a4.22,4.22,0,1,1-4.21-4.21A4.21,4.21,0,0,1,206.53,120.35Z"></path> <path class="cls-8" d="M158.1,96.29A3.17,3.17,0,1,1,155,92.8,3.33,3.33,0,0,1,158.1,96.29Z"></path> <path class="cls-8" d="M177,94.55a1.75,1.75,0,1,1-1.75-1.75A1.75,1.75,0,0,1,177,94.55Z"></path> <path class="cls-8" d="M191.31,143.87a4.14,4.14,0,1,1-4.13-4.13A4.14,4.14,0,0,1,191.31,143.87Z"></path> <path class="cls-8" d="M201.48,88.6a4.2,4.2,0,1,1-4.2-4.2A4.2,4.2,0,0,1,201.48,88.6Z"></path> <path class="cls-8" d="M218.41,145.56a4.2,4.2,0,1,1-5.45,2.36A4.2,4.2,0,0,1,218.41,145.56Z"></path> <path class="cls-8" d="M47.55,178.85a2.8,2.8,0,1,1-2.8-2.8A2.8,2.8,0,0,1,47.55,178.85Z"></path> <path class="cls-8" d="M23.77,188.65a1.4,1.4,0,1,1-1.4-1.4A1.4,1.4,0,0,1,23.77,188.65Z"></path> <path class="cls-8" d="M22.37,209.29a1.75,1.75,0,1,1-1.75-1.75A1.76,1.76,0,0,1,22.37,209.29Z"></path> <path class="cls-8" d="M167.84,243.5a1.75,1.75,0,1,1-1.74-1.75A1.74,1.74,0,0,1,167.84,243.5Z"></path> <circle class="cls-8" cx="30.66" cy="256.26" r="2.1"></circle> <path class="cls-8" d="M175.68,169.57a2.1,2.1,0,1,1-2.1-2.1A2.1,2.1,0,0,1,175.68,169.57Z"></path> <path class="cls-8" d="M32.38,277.44a2.1,2.1,0,1,1,.12-3A2.1,2.1,0,0,1,32.38,277.44Z"></path> <path class="cls-8" d="M74.14,292.9a3.5,3.5,0,1,1-3.5-3.5A3.5,3.5,0,0,1,74.14,292.9Z"></path> <path class="cls-8" d="M62.4,260.92A2.45,2.45,0,1,1,60,258.47,2.45,2.45,0,0,1,62.4,260.92Z"></path> <path class="cls-8" d="M79.42,238.41a3.85,3.85,0,1,1-5.44.23A3.83,3.83,0,0,1,79.42,238.41Z"></path> <path class="cls-8" d="M86.73,266.66a3.85,3.85,0,1,1-3.84-3.85A3.85,3.85,0,0,1,86.73,266.66Z"></path> <path class="cls-8" d="M113.91,283.29a2.9,2.9,0,1,1-2.88-2.62A2.76,2.76,0,0,1,113.91,283.29Z"></path> <path class="cls-8" d="M167.59,284.21a1.75,1.75,0,1,1-1.75-1.75A1.75,1.75,0,0,1,167.59,284.21Z"></path> <path class="cls-8" d="M202.52,245.29a2.1,2.1,0,1,1-2.1-2.09A2.1,2.1,0,0,1,202.52,245.29Z"></path> <path class="cls-8" d="M243.34,200.14a2.1,2.1,0,0,1,.81,4.12,2.1,2.1,0,1,1-.81-4.12Z"></path> <path class="cls-8" d="M120.42,179.59a2.1,2.1,0,1,1-1.66,2.47A2.1,2.1,0,0,1,120.42,179.59Z"></path> <path class="cls-8" d="M119.69,253.05a3.15,3.15,0,1,1-3.15-3.15A3.15,3.15,0,0,1,119.69,253.05Z"></path> <path class="cls-8" d="M135.71,229.23a2.1,2.1,0,1,1-2.1-2.1A2.1,2.1,0,0,1,135.71,229.23Z"></path> <path class="cls-8" d="M126.61,207.54a3.5,3.5,0,1,1-3.49-3.5A3.5,3.5,0,0,1,126.61,207.54Z"></path> <path class="cls-8" d="M104.22,208.24a2.8,2.8,0,1,1-2.79-2.8A2.8,2.8,0,0,1,104.22,208.24Z"></path> <path class="cls-8" d="M104.76,229.9a2.8,2.8,0,1,1-2.8-2.8A2.8,2.8,0,0,1,104.76,229.9Z"></path> <circle class="cls-8" cx="144.04" cy="174.77" r="3.5"></circle> <path class="cls-8" d="M161.47,149.29a3.5,3.5,0,1,1-3.5-3.5A3.5,3.5,0,0,1,161.47,149.29Z"></path> <path class="cls-8" d="M128.76,49.55a2.45,2.45,0,1,1-2.45-2.45A2.45,2.45,0,0,1,128.76,49.55Z"></path> <path class="cls-8" d="M91.63,37.87a1,1,0,1,1-1-1A1,1,0,0,1,91.63,37.87Z"></path> <path class="cls-8" d="M120.85,96.16a2.8,2.8,0,1,1-2.8-2.8A2.8,2.8,0,0,1,120.85,96.16Z"></path> <path class="cls-8" d="M69.24,39.62a1.4,1.4,0,1,1-1.4-1.4A1.39,1.39,0,0,1,69.24,39.62Z"></path> <path class="cls-8" d="M209.26,105a1.4,1.4,0,1,1-1.4-1.4A1.4,1.4,0,0,1,209.26,105Z"></path> <path class="cls-8" d="M51.75,41a1.4,1.4,0,1,1-1.4-1.4A1.4,1.4,0,0,1,51.75,41Z"></path> <path class="cls-8" d="M81.26,18.88a2.22,2.22,0,1,1,2.23-2.22A2.21,2.21,0,0,1,81.26,18.88Z"></path> <path class="cls-8" d="M66.41,25.66a1.4,1.4,0,1,1-1.4-1.4A1.4,1.4,0,0,1,66.41,25.66Z"></path> <path class="cls-8" d="M131.51,17.58a1.75,1.75,0,1,1-1.75-1.74A1.75,1.75,0,0,1,131.51,17.58Z"></path> <path class="cls-8" d="M180.41,71.35a3.49,3.49,0,1,1-4.93.32A3.49,3.49,0,0,1,180.41,71.35Z"></path> <path class="cls-8" d="M168.19,117.3a3.49,3.49,0,1,1-4.93.32A3.48,3.48,0,0,1,168.19,117.3Z"></path> <path class="cls-8" d="M225.2,217.53a3.5,3.5,0,1,1-4.94.32A3.49,3.49,0,0,1,225.2,217.53Z"></path> <path class="cls-8" d="M190.08,226.39a3.5,3.5,0,1,1-4.94.31A3.5,3.5,0,0,1,190.08,226.39Z"></path> <path class="cls-8" d="M210,259.92a3.5,3.5,0,1,1-4.94.31A3.5,3.5,0,0,1,210,259.92Z"></path> <path class="cls-8" d="M199,168.59a3.5,3.5,0,1,1-4.94.32A3.51,3.51,0,0,1,199,168.59Z"></path> <path class="cls-8" d="M158.43,192.27a3.5,3.5,0,1,1-4.94.32A3.5,3.5,0,0,1,158.43,192.27Z"></path> <circle class="cls-8" cx="227.99" cy="241.4" r="3.5" transform="translate(-90.18 336.41) rotate(-63.26)"></circle> <path class="cls-8" d="M205.38,206.9a3.5,3.5,0,1,1-4.94.32A3.51,3.51,0,0,1,205.38,206.9Z"></path> <path class="cls-8" d="M166,267.53a3.5,3.5,0,1,1-4.94.32A3.5,3.5,0,0,1,166,267.53Z"></path> <path class="cls-8" d="M125.59,143.15a3.5,3.5,0,1,1-4.93.32A3.5,3.5,0,0,1,125.59,143.15Z"></path> <path class="cls-8" d="M154.6,31.93a3.5,3.5,0,1,1-3.5-3.5A3.5,3.5,0,0,1,154.6,31.93Z"></path> <path class="cls-8" d="M156.43,63.54a2.1,2.1,0,1,1-2.1-2.1A2.1,2.1,0,0,1,156.43,63.54Z"></path> <path class="cls-8" d="M142.12,72.08A3.15,3.15,0,1,1,139,68.93,3.15,3.15,0,0,1,142.12,72.08Z"></path> <path class="cls-8" d="M163,44.87a2.45,2.45,0,1,1-2.44-2.45A2.45,2.45,0,0,1,163,44.87Z"></path> <path class="cls-8" d="M184.67,49.69A2.71,2.71,0,1,1,182,47,2.71,2.71,0,0,1,184.67,49.69Z"></path> <path class="cls-8" d="M59.45,222.93a2.8,2.8,0,1,1-2.8-2.8A2.8,2.8,0,0,1,59.45,222.93Z"></path> <path class="cls-8" d="M52,294.56a2.1,2.1,0,1,1-2.1-2.09A2.1,2.1,0,0,1,52,294.56Z"></path> <path class="cls-8" d="M140.61,294.64a2.45,2.45,0,1,1-2.45-2.44A2.45,2.45,0,0,1,140.61,294.64Z"></path> <path class="cls-8" d="M230.16,138.62a1.75,1.75,0,1,1-1.75-1.75A1.75,1.75,0,0,1,230.16,138.62Z"></path> <path class="cls-8" d="M241.36,172.21a2.45,2.45,0,1,1-2.45-2.45A2.45,2.45,0,0,1,241.36,172.21Z"></path> <path class="cls-8" d="M51.75,190.75a2.1,2.1,0,1,1-2.1-2.1A2.1,2.1,0,0,1,51.75,190.75Z"></path> <path class="cls-8" d="M102.83,33.33a2.1,2.1,0,1,1-2.1-2.1A2.1,2.1,0,0,1,102.83,33.33Z"></path> <circle class="cls-8" cx="217.49" cy="181.45" r="5.35"></circle> <path class="cls-8" d="M163.53,220.48a3.38,3.38,0,1,1-3.38-3.38A3.38,3.38,0,0,1,163.53,220.48Z"></path> <path class="cls-8" d="M187.87,196.38a3.81,3.81,0,1,1-3.8-3.81A3.8,3.8,0,0,1,187.87,196.38Z"></path> <path class="cls-8" d="M147,259.69a4.86,4.86,0,1,1-4.86-4.86A4.86,4.86,0,0,1,147,259.69Z"></path> <path class="cls-8" d="M127.12,124.29a5,5,0,1,1,6.54-2.56A5,5,0,0,1,127.12,124.29Z"></path> <path class="cls-8" d="M90.14,307.05a3.73,3.73,0,1,1,4.9-1.93A3.73,3.73,0,0,1,90.14,307.05Z"></path> <path class="cls-8" d="M15.7,237.2a3.18,3.18,0,1,1,4.19-1.64A3.18,3.18,0,0,1,15.7,237.2Z"></path> <path class="cls-8" d="M181.34,271.47a4.62,4.62,0,1,1,6.09-2.38A4.62,4.62,0,0,1,181.34,271.47Z"></path> </svg> 